<svg xmlns="http://www.w3.org/2000/svg" viewBox="0 0 64 64" fill="none">
  <rect width="64" height="64" rx="12" fill="#0b1c24"/>
  <path
    d="M32 8C24.5 8 15.2 11 11.2 13.2v22.4c0 18 14.1 29.6 20.8 32.4 6.7-2.8 20.8-14.4 20.8-32.4V13.2C48.8 11 39.5 8 32 8Z"
    stroke="#2ec4b6"
    stroke-width="3"
    stroke-linejoin="round"
  />
  <g fill="#2ec4b6">
    <rect x="18" y="28" width="6" height="6" rx="1.5"/>
    <rect x="25" y="22" width="6" height="6" rx="1.5"/>
    <rect x="25" y="34" width="6" height="6" rx="1.5"/>
    <rect x="32" y="16" width="6" height="6" rx="1.5"/>
    <rect x="32" y="28" width="6" height="6" rx="1.5"/>
    <rect x="32" y="40" width="6" height="6" rx="1.5"/>
    <rect x="39" y="22" width="6" height="6" rx="1.5"/>
    <rect x="39" y="34" width="6" height="6" rx="1.5"/>
    <rect x="46" y="28" width="6" height="6" rx="1.5"/>
  </g>
</svg>
