<svg xmlns="http://www.w3.org/2000/svg" width="349.299" height="123.385" viewBox="0 0 349.299 123.385">
  <g id="Group_7" data-name="Group 7" transform="translate(-68 170)">
    <path id="Path_1" data-name="Path 1" d="M248.925,174.086l-21.448,0,.1-2.076,3.323-.554a3.193,3.193,0,0,0,2.362-3.241V136.15a3.115,3.115,0,0,0-2.392-3.194l-3.374-.52.147-2.078,23.033-.007a14.53,14.53,0,0,1,9.443,3.158,9.134,9.134,0,0,1-.169,13.782c-1.69,1.408-3.633,2.023-5.813,2.9,6.537,1.335,11.774,4.569,11.679,11.494-.12,8.7-8.569,12.4-16.892,12.4m.988-25.625c2.886-1.238,4.049-4.244,4.01-7.147-.054-2.8-.9-5.551-3.287-7.08a11.133,11.133,0,0,0-8.091-1.111,5.723,5.723,0,0,0-.511,1.695l.017,14.457c2.638.138,5.326.274,7.862-.814m5.656,17.689a12.535,12.535,0,0,0,.288-7.273,8.422,8.422,0,0,0-7.635-6.663l-6.188-.223.046,15.1c.008,2.775,2.181,4.3,4.691,4.368,3.846.1,7.41-1.443,8.8-5.314" transform="translate(-85.681 -258.064)" fill="#fff"/>
    <path id="Path_2" data-name="Path 2" d="M38.325,166.692l22.943,5.178V138.993L40.4,133.223l-.055,6.568.063,3.985a2.156,2.156,0,0,1-1.028,1.366l.095-5.387.089-6.193a6.114,6.114,0,0,0-1.024-2.586l23.164,6.141a9.6,9.6,0,0,0,2.935.2l-1.491,1.1-.019,36.011-25.425-5.67-23.754,4.986-.014-34.985,24.245-7.2ZM34.81,135.027l-.12,31.437,1.627.006.12-31.437Zm-17.513,5.2H15.833l.028,29.695h1.464ZM32.55,165.9l-.071-19.871c-.611-3.257-2.963-6.148-6.478-5.436a8.485,8.485,0,0,0-6.329,8.1L19.6,168.609Z" transform="translate(58.582 -258.486)" fill="#5296ec"/>
    <path id="Path_3" data-name="Path 3" d="M796.243,205.844l-3.016.045-8.016-18.721-7.779,18.712-3.033.021-9.6-24.444c-.678-1.727-2.207-2.522-4.123-2.863a12.633,12.633,0,0,1-.1-1.891l16.222-.016-.028,1.685c-.007.4-1.783.055-3,1.247a2.6,2.6,0,0,0-.206,2.058l5.275,13.874,7.749-18.968,2.518-.042,5.352,12.511,2.971,6.688,4.837-13.833a3.187,3.187,0,0,0-.4-2.272c-1.082-1.111-3.3-.869-3.321-1.228l-.1-1.685,12.073-.033.08,1.855a5.316,5.316,0,0,0-4.677,3.187l-2.172,4.959Z" transform="translate(-445.835 -289.27)" fill="#fff"/>
    <path id="Path_4" data-name="Path 4" d="M28.452,292.567.035,298.514.026,278.308,28.44,272.49Z" transform="translate(67.983 -354.092)" fill="#5296ec"/>
    <path id="Path_5" data-name="Path 5" d="M584.148,174.069l-21.449,0-.028-2.016,4.361-.836c1.1-.211,1.924-2.013,1.925-3.284l.03-34.645c-5.417-.127-11.543-.49-13.689,4.509l-1.36,3.168-2.015-.325,1.327-10.319,40.763-.008L595,140.761l-2.006.2a21.622,21.622,0,0,0-2.477-5.488,9.493,9.493,0,0,0-5.382-2.1l-7.522-.129.019,34.542c0,1.2.866,2.98,1.822,3.31a18.387,18.387,0,0,0,4.725.842Z" transform="translate(-304.873 -258.036)" fill="#fff"/>
    <path id="Path_6" data-name="Path 6" d="M686.016,203.407a18.67,18.67,0,0,1-12.466.29,14.1,14.1,0,0,1-9.866-12.944,14.968,14.968,0,0,1,6.742-13.79,18.023,18.023,0,0,1,15.6-1.681,14.174,14.174,0,0,1,9.493,12.252,14.947,14.947,0,0,1-9.5,15.871m-3.489-1.81a5.938,5.938,0,0,0,3.013-3.431c3.07-8.884.306-22.177-7.278-21.374-6.507.689-7.046,12.475-4.245,19.923,1.487,3.956,4.831,6.314,8.51,4.882" transform="translate(-380.359 -287.714)" fill="#fff"/>
    <path id="Path_7" data-name="Path 7" d="M51.7,25.826l-3.425-8.966c-1.225-3.207-2.312-6.185-3.23-9.532a77.709,77.709,0,0,0-.981,12.832l-.07,12.331-20.6,6.172L33.533,27.17a63.914,63.914,0,0,0,7.544-11.919A45.821,45.821,0,0,0,45.188,0c1.625,16.507,10.767,26.438,21.387,38.425L45.662,32.839c-.207.012-.962-.038-.9-.2l.386-1.022.524-19.063a83.3,83.3,0,0,0,3.616,10.411Z" transform="translate(52.196 -170)" fill="#5296ec"/>
    <path id="Path_8" data-name="Path 8" d="M499.219,165.689l-.048-1.734c-.015-.544,4.232.234,4.23-3.506l-.017-34.633c0-2.258-1.658-3.49-3.915-3.377a4.579,4.579,0,0,1-.285-2.1l12.357-2.434.01,42.773a2.619,2.619,0,0,0,2.763,2.784,2.981,2.981,0,0,1,1.435.329c.29.28.154,1.26.079,1.9Z" transform="translate(-269.229 -249.659)" fill="#fff"/>
    <path id="Path_9" data-name="Path 9" d="M443.495,165.669c-.182-.624-.369-1.6-.109-1.747,1.171-.669,4.121-.143,4.122-3.411l.005-34.791c0-3.724-4.148-3.082-4.183-3.571L443.2,120.4l12.444-2.512.017,42.53c0,3.243,2.837,2.848,3.806,3.379.3.165.21,1.055.167,1.863Z" transform="translate(-231.423 -249.646)" fill="#fff"/>
    <path id="Path_10" data-name="Path 10" d="M936.973,196.341c.335-.31,1.374.146,1.475.521a2.063,2.063,0,0,1-.486,1.325,13.969,13.969,0,0,1-15.389,5.962,13.5,13.5,0,0,1-10.341-10.84,16.4,16.4,0,0,1,5.408-15.735,14.1,14.1,0,0,1,15.068-2.066,10.748,10.748,0,0,1,5.648,11.3l-18.38,1.287c.079,3.295,1.032,6.711,3.6,8.871a10.118,10.118,0,0,0,13.395-.623m-6.232-11.56a7.606,7.606,0,0,0-2.089-7.192,4.758,4.758,0,0,0-6.914,1.523,11.617,11.617,0,0,0-1.673,6.26Z" transform="translate(-548.094 -287.681)" fill="#fff"/>
    <path id="Path_11" data-name="Path 11" d="M381.134,196.221a1.9,1.9,0,0,1,1.64,1.247c-3.936,5.681-9.471,8.336-16.257,6.6a12.881,12.881,0,0,1-8.575-6.715,16.562,16.562,0,0,1,2.465-18.3,14.238,14.238,0,0,1,16.325-3.7,10.537,10.537,0,0,1,5.813,11.459l-18.383,1.2a11.684,11.684,0,0,0,3.7,8.869,9.763,9.763,0,0,0,13.276-.657m-6.1-11.312a7.6,7.6,0,0,0-2.564-7.6,4.62,4.62,0,0,0-6.192,1.5,12.172,12.172,0,0,0-2.054,6.571Z" transform="translate(-172.669 -287.675)" fill="#fff"/>
    <path id="Path_12" data-name="Path 12" d="M1014.393,201.061l3.369.514-.021,1.934L1000.4,203.5l-.044-1.724c-.008-.336,1.016-.374,1.354-.393a2.858,2.858,0,0,0,2.806-3.092l.009-16.532c0-4.106-4.193-3.436-4.085-4.082l.21-1.256,11.768-2.535.04,6.747a29.745,29.745,0,0,1,4.239-5.1,5.368,5.368,0,0,1,7.3-.017,3.972,3.972,0,0,1,.693,4.595c-.684,1.354-2.524,2.886-4.229,2.221-1.325-.517-2.313-2.094-4.062-1.758-1.5.288-3.8,2.294-3.814,4.088l-.1,13.654a2.7,2.7,0,0,0,1.9,2.749" transform="translate(-607.828 -287.473)" fill="#fff"/>
    <path id="Path_13" data-name="Path 13" d="M119.833,187.649,106.247,185l-.023-15.213a10.69,10.69,0,0,1,1.8-6.21,5.487,5.487,0,0,1,7.839-.842c2.377,1.713,3.52,4.467,3.941,7.43Z" transform="translate(-3.763 -279.085)" fill="#5296ec"/>
    <path id="Path_14" data-name="Path 14" d="M28.429,347.088,0,352.866l.021-7.249,28.39-5.941Z" transform="translate(68 -399.481)" fill="#5296ec"/>
    <path id="Path_15" data-name="Path 15" d="M117.028,280.4l-24.413-4.758,0,12.2-1.425,2.213-.291-2.663-.056-12.214-1.38-.554c-.292-.117-.154-1.12-.1-1.523l29.458,5.832,0,21.908-29.509-5.992.015-1.751,27.693,5.577Z" transform="translate(7.678 -354.501)" fill="#5296ec"/>
    <path id="Path_16" data-name="Path 16" d="M28.509,256.967.018,262.922l.012-4.837L28.5,252.069Z" transform="translate(67.988 -340.295)" fill="#5296ec"/>
    <path id="Path_17" data-name="Path 17" d="M30.667,108.437,3.418,116.651l4.638-5.2L30.7,104.693Z" transform="translate(65.69 -240.729)" fill="#5296ec"/>
    <path id="Path_18" data-name="Path 18" d="M4.43,120.952,1.553,119.3l27.191-8.041c.822-.243,1.22-.407,1.185-1.588l24.076,6.338-2.963-3.7-11.168-3.283a47.39,47.39,0,0,1-7.071-2.644,52.262,52.262,0,0,1,8.177,1.852l11.951,3.244,7.186,7.494c-10.458-2.249-20.494-4.857-30.659-7.674l.094,2.162Z" transform="translate(66.951 -241.87)" fill="#5296ec"/>
    <rect id="Rectangle_1" data-name="Rectangle 1" width="52.623" height="1.279" transform="translate(363.192 -66.716)" fill="#fff"/>
    <path id="Path_19" data-name="Path 19" d="M118.865,264.842l-.035,5.191-29.4-6.143-.041-1.741L115.85,267.5l-1.072-3.424Z" transform="translate(7.613 -347.105)" fill="#5296ec"/>
    <rect id="Rectangle_2" data-name="Rectangle 2" width="45.826" height="1.277" transform="translate(135.341 -66.716)" fill="#fff"/>
    <path id="Path_20" data-name="Path 20" d="M742.346,315.089l-2.736-4.161-2.724-.055-.015,4.219-1.835-.067.028-11.7,5.669.1a3.583,3.583,0,0,1,3.422,2.954,3.522,3.522,0,0,1-2.694,4.2l3.1,4.536Zm-1.559-5.949c1.181-.065,1.782-1.547,1.622-2.393a2.344,2.344,0,0,0-1.9-1.733l-3.636-.079.02,4.42Z" transform="translate(-428.582 -374.921)" fill="#fff"/>
    <path id="Path_21" data-name="Path 21" d="M448.068,315.237l-2.8-4.23-2.866,0,.019,4.212-1.828-.077.04-11.718,5.484.027a3.678,3.678,0,0,1,3.635,3.028,3.494,3.494,0,0,1-2.692,4.173l3.134,4.585Zm-1.878-5.97a2.112,2.112,0,0,0,1.766-2.522,2.184,2.184,0,0,0-2.05-1.678l-3.508-.049.009,4.416Z" transform="translate(-229.663 -374.993)" fill="#fff"/>
    <path id="Path_22" data-name="Path 22" d="M779.664,314.923a5.722,5.722,0,0,1-6.166-5.472,5.963,5.963,0,1,1,11.768.525,5.721,5.721,0,0,1-5.6,4.947m3.882-5.495a4.242,4.242,0,0,0-3.911-4.937c-2.563-.157-4.373,1.97-4.293,4.6a4.106,4.106,0,0,0,8.2.338" transform="translate(-454.556 -374.586)" fill="#fff"/>
    <path id="Path_23" data-name="Path 23" d="M597.3,310.03l-.02-1.682,4.61.018-.048,4.986c-2.354,1.745-5.6,2.331-8.159.614a6.205,6.205,0,0,1-.554-9.582,6.3,6.3,0,0,1,8.249.091l-1.035,1.4a4.6,4.6,0,0,0-4.65-1.1,4.074,4.074,0,0,0-2.647,3.7A4.413,4.413,0,0,0,595.1,312.8a4.514,4.514,0,0,0,5.012-.442l.019-2.32Z" transform="translate(-331.362 -374.629)" fill="#fff"/>
    <path id="Path_24" data-name="Path 24" d="M698.322,310.016l-2.748-.079-.073-1.615,4.535,0,.064,4.838a6.637,6.637,0,0,1-8.542.475,6.25,6.25,0,0,1,.161-9.54,6.383,6.383,0,0,1,7.943.278l-1.113,1.464a4.375,4.375,0,0,0-4.634-1.065,4.331,4.331,0,0,0-2.62,3.7,4.415,4.415,0,0,0,2.014,4.263,4.531,4.531,0,0,0,4.992-.413Z" transform="translate(-397.768 -374.591)" fill="#fff"/>
    <path id="Path_25" data-name="Path 25" d="M563.218,309.969l-5.791.024-.064,3.52,6.619-.016.022,1.661-8.437-.014.05-11.788,8.206-.012,0,1.661h-6.464l.024,3.364,5.584-.04Z" transform="translate(-307.336 -374.936)" fill="#fff"/>
    <path id="Path_26" data-name="Path 26" d="M829.572,303.416l1.809.028-.035,7.507c-.013,2.684-2.186,4.324-4.7,4.379-2.822.061-5.014-1.645-5.016-4.577l0-7.345,1.814-.024-.01,7.046a3.076,3.076,0,1,0,6.146.027Z" transform="translate(-487.085 -374.962)" fill="#fff"/>
    <path id="Path_27" data-name="Path 27" d="M486.367,312.281l-5.61-.007-1.167,2.834-1.98.062,4.991-11.582,1.835-.131,4.981,11.69c-.6.152-1.853.082-2.008-.3Zm-.67-1.671-2.158-4.975-2.222,5.017Z" transform="translate(-254.669 -375.012)" fill="#fff"/>
    <path id="Path_28" data-name="Path 28" d="M866.609,311.218l-.008,3.95-1.825-.041.034-11.734,4.836.005a3.9,3.9,0,1,1,.079,7.793Zm3.433-1.687c.982-.034,1.837-1.361,1.849-2.158.011-.75-.558-2.115-1.4-2.159l-3.875-.2,0,4.639Z" transform="translate(-516.233 -374.969)" fill="#fff"/>
    <path id="Path_29" data-name="Path 29" d="M374.11,314.2a6.488,6.488,0,0,1-7.367-.916l1-1.42a4.924,4.924,0,0,0,4.987,1.2,2.181,2.181,0,0,0,1.119-1.545c-.079-1.8-2.953-1.374-5.631-2.866-.975-.544-1.227-2.093-1-3.167a3.561,3.561,0,0,1,2.352-2.393,6.24,6.24,0,0,1,5.542,1.109l-1.054,1.482a3.819,3.819,0,0,0-4.351-.862,2.011,2.011,0,0,0-.809,1.478,2.072,2.072,0,0,0,1.086,1.259l3.792,1.141a2.957,2.957,0,0,1,1.785,2.56,3.445,3.445,0,0,1-1.456,2.94" transform="translate(-179.768 -374.604)" fill="#fff"/>
    <path id="Path_30" data-name="Path 30" d="M641.866,303.423l-4.417,7.022-.121,4.663-1.684-.125-.051-4.5-4.554-7.133,2.1,0,3.387,5.362,3.333-5.414Z" transform="translate(-358.323 -374.906)" fill="#fff"/>
    <path id="Path_31" data-name="Path 31" d="M522.107,314.983l-1.842.17-.031-10.128-3.689-.008-.124-1.648,9.324-.015.06,1.665h-3.723Z" transform="translate(-280.888 -374.942)" fill="#fff"/>
    <path id="Path_32" data-name="Path 32" d="M406.761,315.05l-1.849.1.03-10.144-3.763.046-.089-1.7,9.376-.017.046,1.677-3.775-.038Z" transform="translate(-202.972 -374.931)" fill="#fff"/>
    <path id="Path_44" data-name="Path 44" d="M46.142,173.434l.005,14.593-9.663,1.858.079-17.977a7.182,7.182,0,0,1,3.146-5.634,3.808,3.808,0,0,1,5.615,1.206c1.688,2.924.379,5.4.241,5.221Z" transform="translate(43.352 -281.829)" fill="#5296ec"/>
  </g>
</svg>
