<svg xmlns="http://www.w3.org/2000/svg" viewBox="0 0 80 100" fill="none" aria-hidden="true">
  <!-- steeple tip -->
  <path d="M40 2 L44 14 H36 Z" fill="#1E4A7A"/>
  <!-- roof -->
  <path d="M22 28 L40 8 L58 28 Z" fill="#5BA8E0"/>
  <path d="M40 8 L58 28 H40 Z" fill="#2F6FA8"/>
  <!-- upper tower -->
  <rect x="26" y="28" width="28" height="18" fill="#5BA8E0"/>
  <rect x="40" y="28" width="14" height="18" fill="#3B8BC4"/>
  <!-- arched openings -->
  <path d="M30 36 v8 h6 v-8 a3 3 0 0 0 -6 0 z" fill="#0B1C33"/>
  <path d="M44 36 v8 h6 v-8 a3 3 0 0 0 -6 0 z" fill="#0B1C33"/>
  <!-- main shaft -->
  <rect x="24" y="46" width="32" height="42" fill="#5BA8E0"/>
  <rect x="40" y="46" width="16" height="42" fill="#3B8BC4" opacity="0.55"/>
  <!-- lower windows -->
  <path d="M30 54 v10 h7 v-10 a3.5 3.5 0 0 0 -7 0 z" fill="#0B1C33"/>
  <path d="M43 54 v10 h7 v-10 a3.5 3.5 0 0 0 -7 0 z" fill="#0B1C33"/>
  <path d="M30 70 v10 h7 v-10 a3.5 3.5 0 0 0 -7 0 z" fill="#0B1C33"/>
  <path d="M43 70 v10 h7 v-10 a3.5 3.5 0 0 0 -7 0 z" fill="#0B1C33"/>
  <!-- base -->
  <rect x="18" y="88" width="44" height="8" fill="#1E4A7A"/>
  <rect x="20" y="86" width="40" height="3" fill="#2F6FA8"/>
</svg>
