<svg xmlns="http://www.w3.org/2000/svg" viewBox="0 0 96 128" fill="none" aria-hidden="true">
  <path d="M48 2 L52 16 H44 Z" fill="#1B4F80"/>
  <path d="M22 36 L48 10 L74 36 Z" fill="#4FA3D9"/>
  <path d="M48 10 L74 36 H48 Z" fill="#2E7BB8"/>
  <path d="M22 36 L48 10 L74 36 Z" fill="none" stroke="#9FD0F0" stroke-width="1.3" stroke-linejoin="round"/>
  <rect x="30" y="36" width="36" height="28" fill="#4FA3D9"/>
  <rect x="48" y="36" width="18" height="28" fill="#3B8FC8"/>
  <path d="M30 36 H66 V64 H30 Z" fill="none" stroke="#9FD0F0" stroke-width="1.2"/>
  <path d="M35 46 v16 h9 v-16 a4.5 4.5 0 0 0 -9 0 z" fill="#0A1A2E"/>
  <path d="M35 46 v16 h9 v-16 a4.5 4.5 0 0 0 -9 0 z" fill="none" stroke="#9FD0F0" stroke-width="0.9"/>
  <path d="M52 46 v16 h9 v-16 a4.5 4.5 0 0 0 -9 0 z" fill="#0A1A2E"/>
  <path d="M52 46 v16 h9 v-16 a4.5 4.5 0 0 0 -9 0 z" fill="none" stroke="#9FD0F0" stroke-width="0.9"/>
  <rect x="26" y="64" width="44" height="18" fill="#4FA3D9"/>
  <rect x="48" y="64" width="22" height="18" fill="#3B8FC8"/>
  <path d="M26 64 H70 V82 H26 Z" fill="none" stroke="#9FD0F0" stroke-width="1.2"/>
  <rect x="28" y="82" width="40" height="22" fill="#4FA3D9"/>
  <rect x="48" y="82" width="20" height="22" fill="#3B8FC8"/>
  <path d="M28 82 H68 V104 H28 Z" fill="none" stroke="#9FD0F0" stroke-width="1.2"/>
  <rect x="22" y="104" width="52" height="8" fill="#2E7BB8"/>
  <rect x="16" y="112" width="64" height="10" fill="#1B4F80"/>
  <path d="M22 104 H74 V112 H22 Z" fill="none" stroke="#9FD0F0" stroke-width="1"/>
  <path d="M16 112 H80 V122 H16 Z" fill="none" stroke="#9FD0F0" stroke-width="1"/>
</svg>
