<svg xmlns="http://www.w3.org/2000/svg" viewBox="0 0 80 112" fill="none" aria-hidden="true">
  <path d="M40 2 L44 16 H36 Z" fill="#1E4A7A"/>
  <path d="M18 36 L40 10 L62 36 Z" fill="#5BA8E0"/>
  <path d="M40 10 L62 36 H40 Z" fill="#2F6FA8"/>
  <path d="M18 36 L40 10 L62 36" fill="none" stroke="#1E4A7A" stroke-width="1.5" stroke-linejoin="round"/>
  <rect x="24" y="36" width="32" height="20" fill="#5BA8E0"/>
  <rect x="40" y="36" width="16" height="20" fill="#3B8BC4"/>
  <path d="M24 36 H56 V56 H24 Z" fill="none" stroke="#1E4A7A" stroke-width="1.25"/>
  <path d="M29 44 v10 h7 v-10 a3.5 3.5 0 0 0 -7 0 z" fill="#0B1C33"/>
  <path d="M44 44 v10 h7 v-10 a3.5 3.5 0 0 0 -7 0 z" fill="#0B1C33"/>
  <rect x="22" y="56" width="36" height="42" fill="#5BA8E0"/>
  <rect x="40" y="56" width="18" height="42" fill="#3B8BC4" opacity="0.55"/>
  <path d="M22 56 H58 V98 H22 Z" fill="none" stroke="#1E4A7A" stroke-width="1.25"/>
  <path d="M28 64 v11 h8 v-11 a4 4 0 0 0 -8 0 z" fill="#0B1C33"/>
  <path d="M44 64 v11 h8 v-11 a4 4 0 0 0 -8 0 z" fill="#0B1C33"/>
  <path d="M28 80 v11 h8 v-11 a4 4 0 0 0 -8 0 z" fill="#0B1C33"/>
  <path d="M44 80 v11 h8 v-11 a4 4 0 0 0 -8 0 z" fill="#0B1C33"/>
  <rect x="16" y="98" width="48" height="8" fill="#1E4A7A"/>
  <rect x="20" y="95" width="40" height="3" fill="#2F6FA8"/>
</svg>
